<?xml version="1.0" encoding="utf-8"?>
<!-- Generator: Adobe Illustrator 19.2.1, SVG Export Plug-In . SVG Version: 6.00 Build 0)  -->
<svg version="1.1" id="Layer_1" xmlns="http://www.w3.org/2000/svg" xmlns:xlink="http://www.w3.org/1999/xlink" x="0px" y="0px"
	 viewBox="0 0 91.4 132.8" style="enable-background:new 0 0 91.4 132.8;" xml:space="preserve">
<style type="text/css">
	.st0{fill:none;stroke:#000000;stroke-miterlimit:10;}
</style>
<path class="st0" d="M0.5,125.7c0.1-0.4,0.2-0.7,0.3-1.1c0.1-0.4,0.3-0.8,0.5-1.1c0.7-1.2,1.7-1.3,2.4,0c0.8,1.3,1.6,2.6,2.9,3.6
	c2.3,1.7,4.8,2,7.5,1.6c5.9-0.9,9.1-4.7,10.9-10c1.1-3.3,1.5-6.6,1.5-10.1c0-22.3,0-44.7,0-67c0-0.2,0-0.4,0-0.8
	c-1.9,2.2-3.7,4.3-5.5,6.4c-0.7-0.6-1.3-1.1-2-1.7c5.4-6.3,10.8-12.5,16.3-18.9c0.7,0.6,1.3,1.2,2,1.8c-1.1,1.3-2.2,2.6-3.3,3.9
	c-0.4,0.4-0.5,0.8-0.5,1.4c0,0.6,0,1.2,0,1.9c1.1-0.9,2.2-1.7,3.3-2.5c2.5-1.8,5.4-2.8,8.5-2.8c4.1,0,7.5,1.6,10.2,4.5
	c0.6,0.6,1.1,1.3,1.7,1.9c0.6-0.7,1.2-1.5,1.9-2.2c2.9-3.2,6.7-4.5,11-4.2c1.7,0.1,3.3,0.3,4.9,1c2.6,1.1,4.3,3,5.4,5.5
	c1,2.3,1.6,4.7,1.8,7.1c0.2,3.2,0.4,6.3,0.5,9.5c0.1,10.4,0,20.8,0.1,31.1c0,1.5,0.2,2.9,0.6,4.4c0.4,2,1.6,2.9,3.6,3.1
	c0.9,0.1,1.9,0.1,2.8,0.2c0.4,0,0.8,0,1.3,0c0,1,0,1.8,0,2.8c-7.3,0-14.5,0-21.9,0c0-0.9,0-1.8,0-2.8c2.2,0,4.4,0,6.7,0
	c0-0.3,0.1-0.5,0.1-0.7c0-14.3,0-28.7,0-43c0-3.3-0.3-6.6-1.5-9.7c-1.9-5.1-8.5-6.8-12.6-3.1c-1.5,1.3-2.2,3.1-2.6,5
	c-0.2,1-0.3,1.9-0.3,2.9c0,13.8,0,27.6,0,41.4c0,1.5,0.2,3,0.5,4.5c0.3,1.7,1.4,2.5,3.1,2.7c0.7,0.1,1.3,0.1,2,0.1c0.6,0,1.3,0,2,0
	c0,1,0,1.9,0,2.8c-6.9,0-13.8,0-20.7,0c0-0.9,0-1.8,0-2.8c2,0,4,0,6.2,0c0-0.4,0-0.8,0-1.2c0-13.4,0-26.9,0-40.3
	c0-3.2-0.3-6.4-0.6-9.5c-0.2-1.5-0.8-3-1.4-4.5c-0.9-2-2.7-2.8-4.8-2.9c-4.6-0.2-7.6,2.1-9.6,5.9c-0.7,1.3-1.2,2.7-1.7,4.1
	c-0.1,0.3-0.1,0.7-0.1,1c0,19.4,0,38.9,0,58.3c0,5.6-0.9,11-3.3,16.1c-2.1,4.5-5,8.2-9.5,10.6c-2.5,1.3-5.2,2.1-8,2.4
	c-2.1,0.2-4.1,0.1-6.1-0.4c-1.7-0.4-3.4-1.1-4.6-2.5c-0.6-0.7-1-1.6-1.4-2.4C0.5,126.6,0.5,126.1,0.5,125.7z M29.2,0.5
	c-0.2,0.1-0.3,0.1-0.5,0.2c-2.9,0.5-5.1,3-5,6c0.1,3.8,3.3,6.3,6.8,6c2.6-0.3,4.8-2,5.4-4.6c0.5-2.3-0.2-4.8-2.5-6.3
	c-0.8-0.5-1.9-0.8-2.8-1.2C30.1,0.5,29.6,0.5,29.2,0.5z"/>
</svg>
